<svg xmlns:xlink="http://www.w3.org/1999/xlink" version="1.1" viewBox="0 0 180 180" style="width: 100%; height: 100%; z-index: 5;"><g fill="rgb(0, 0, 0)" fill-rule="nonzero"><svg xmlns="http://www.w3.org/2000/svg" fill="rgb(0, 0, 0)" width="94.4739990234375" height="94.11699676513672" viewBox="2.8109941482543945 2.924001693725586 94.4739990234375 94.11699676513672"><path fill-rule="evenodd" clip-rule="evenodd" d="M65.39 96.682c-.846-2.378-1.565-4.39-2.262-6.338-1.55 2.089-3.239 4.358-4.922 6.62-.251-.109-.493-.227-.743-.337v-5.188c-2.739.751-5.65 2.05-7.356-1.901-1.847 3.356-4.421 3.114-7.379 1.854v5.203c-.243.149-.485.298-.72.446-1.729-2.223-3.451-4.444-5.118-6.589-.649 1.792-1.362 3.764-2.207 6.104-2.097-4.859-3.623-9.265-1.769-14.288-.47.266-.939.54-1.581.907v-1.808c-3.294 3.757-7.583 4.969-12.778 5.329 1.361-1.753 2.622-3.364 3.811-4.883-2.629-.399-5.399-.821-8.169-1.244-.016-.32-.023-.634-.039-.955l4.374-2.269c-.861-1.057-2.066-2.027-2.551-3.279-.438-1.134-.094-2.582-.094-4.146-3.349-.039-4.147-2.716-4.539-5.752-1.526.994-2.879 1.87-4.233 2.747-.282-.157-.563-.321-.845-.485a5715.85 5715.85 0 0 0 2.942-7.841c-1.776.313-3.826.681-6.401 1.143 3.232-4.147 5.893-7.974 10.963-8.013-.086-1.189-.148-1.996-.25-3.396-4.499-.282-7.512-3.756-10.618-8.021 2.402.415 4.468.767 6.354 1.088-.955-2.488-1.996-5.172-3.028-7.864.274-.164.547-.336.821-.5 1.37.868 2.739 1.737 4.218 2.668.712-2.621.853-5.759 5.211-5.422-1.987-3.49-.344-5.642 2.199-7.512-1.604-.845-3.028-1.596-4.444-2.34a36.212 36.212 0 0 1-.039-.931c2.621-.493 5.243-.978 7.903-1.471-1.111-1.455-2.395-3.122-4.116-5.368 5.079 1.518 10.102 1.221 12.316 6.135 4.062-1.761 2.113-4.327 1.847-6.698-.141-1.252.47-2.606.822-3.889.399-1.463.892-2.895 1.573-5.078.947 2.512 1.69 4.468 2.387 6.314 1.612-2.136 3.271-4.319 4.93-6.51.243.109.493.211.744.321v5.243c2.668-.782 5.461-2.042 7.332 1.957 1.846-3.709 4.554-3.075 7.363-1.941v-5.07c.235-.165.47-.329.696-.485 1.729 2.175 3.451 4.351 5.118 6.448.673-1.769 1.455-3.787 2.355-6.143.962 2.762 2.159 4.922 2.363 7.168.211 2.277-.571 4.648-.986 7.387.853-.493 1.33-.767 1.925-1.119v2.269c2.034-1.674 3.646-3.552 5.681-4.515 1.965-.931 4.375-.923 7.262-1.448-1.494 1.956-2.754 3.592-3.889 5.071 2.598.422 5.306.868 8.013 1.307.023.297.055.595.086.892-1.416.79-2.84 1.573-4.39 2.434 1.862 1.894 4.257 3.811 2.026 7.316 3.717.141 4.883 2.496 5.04 5.783 1.658-1.064 3.004-1.925 4.351-2.794.273.165.556.329.829.485-.979 2.645-1.964 5.29-2.911 7.849 1.784-.297 3.858-.642 6.417-1.064-3.365 3.928-5.83 7.997-11.064 7.896.125 1.213.211 2.066.359 3.514 4.461.172 7.449 3.639 10.345 7.841-2.136-.321-4.241-.634-6.135-.916.963 2.473 2.003 5.109 3.036 7.747l-.821.61c-1.33-.869-2.653-1.729-4.14-2.7-.939 2.465-.884 5.979-5.438 5.313 2.152 3.537.485 5.688-2.089 7.59 1.604.893 3.06 1.698 4.515 2.505-.023.313-.047.626-.078.938-2.699.407-5.407.813-8.099 1.221 1.197 1.479 2.527 3.13 4.319 5.345-5.126-1.354-10.056-1.166-12.23-5.939-1.182.735-1.901 1.182-2.833 1.769.282 1.948 1.057 4.343.854 6.651-.198 2.178-1.411 4.276-2.396 7.022zm11.651-46.7c1.948-.634 3.208-1.017 4.444-1.44 3.099-1.064 5.47-3.114 5.947-6.322.305-2.074-.142-4.593-1.174-6.377-.478-.806-3.2-.305-5.235-.423.094-1.041.235-2.637.353-3.904-1.526-.791-2.919-1.518-3.882-2.019 1.182-1.495 2.825-2.661 2.755-3.709-.094-1.417-1.236-3.099-2.434-4.022-3.138-2.441-7.708-1.878-10.916 1.119-.994.923-1.706 2.144-2.543 3.224-.267-.25-.54-.493-.806-.744.313-1.197.665-2.386.931-3.599.759-3.521.259-6.902-2.637-9.147-1.55-1.205-3.937-1.91-5.877-1.776-.899.063-1.619 2.668-2.605 4.46l-3.31-2.441c-1.229.853-2.574 1.776-3.529 2.441-.782-1.831-1.025-3.834-1.972-4.257-1.283-.579-3.31-.384-4.671.25-3.631 1.683-5.267 6.057-4.312 10.509.266 1.26.649 2.504.978 3.748-.258.18-.524.352-.783.524-.923-1.119-1.729-2.379-2.793-3.349-2.809-2.559-6.189-3.357-9.57-1.588-1.565.821-3.083 2.621-3.576 4.28-.282.97 1.51 2.551 2.598 4.194-1.057.509-2.497 1.205-3.717 1.792.094 1.628.18 3.193.25 4.421-1.854-.266-3.803-1.127-4.531-.524-1.181.986-2.058 2.895-2.191 4.484-.336 4.03 2.418 7.434 6.604 8.874 1.166.399 2.332.798 4.233 1.455-1.98.54-3.099.798-4.187 1.158-3.584 1.166-6.127 3.584-6.526 7.301-.204 1.925.657 4.28 1.808 5.893.485.681 2.958-.063 4.867-.173-.125 1.197-.29 2.794-.438 4.202 1.448.728 2.84 1.425 4.57 2.293-4.397 2.285-4.546 5.133-.955 7.543 3.357 2.254 7.708 1.808 10.963-1.244.994-.931 1.745-2.12 2.605-3.2.243.227.485.446.728.673-.321 1.189-.712 2.371-.962 3.584-.775 3.764-.188 7.301 3.067 9.578 1.518 1.064 3.857 1.604 5.673 1.338.923-.133 1.495-2.59 2.41-4.335.845.618 2.144 1.564 3.326 2.434 1.173-.838 2.497-1.769 3.466-2.457.767 1.776 1.041 3.873 1.964 4.226 1.433.532 3.537.32 4.953-.392 3.537-1.776 5.048-6.025 4.101-10.313-.281-1.268-.665-2.512-.993-3.771.25-.164.5-.32.759-.485.853 1.041 1.611 2.191 2.59 3.106 2.652 2.496 5.885 3.561 9.233 1.996 1.714-.799 3.459-2.528 4.101-4.241.375-.994-1.425-2.794-2.441-4.586.938-.431 2.301-1.064 3.631-1.683-.094-1.51-.196-3.153-.274-4.452 1.761.321 3.607 1.221 4.28.665 1.213-.993 2.293-2.801 2.418-4.351.313-3.779-1.611-6.675-4.953-8.412-1.556-.808-3.333-1.183-5.813-2.029z"></path><path fill-rule="evenodd" clip-rule="evenodd" d="M39.285 53.855c-2.575.047-5.736-2.159-5.673-3.959.063-1.722 3.083-3.819 5.517-3.827 2.559-.008 4.914 1.8 4.969 3.827.047 2.042-2.215 3.905-4.813 3.959zM60.749 53.832c-2.637-.055-4.859-1.878-4.797-3.936.063-2.019 2.434-3.85 4.945-3.834 2.426.016 5.407 2.105 5.485 3.834.079 1.832-3.012 3.991-5.633 3.936zM48.644 41.586c-.133 1.627-.618 3.38-3.122 3.443-2.661.07-5.086-2.567-5-5.728.047-1.62-.235-3.834 2.371-4.006 2.887-.18 5.688 2.762 5.751 6.291zM40.467 61.994c.031-4.327 2.292-7.066 4.906-7.074 2.457-.008 3.177 1.651 3.255 3.701.11 3.067-2.754 6.339-5.548 5.846-1.221-.22-2.16-2.012-2.613-2.473zM59.497 62.002c-.431.438-1.369 2.253-2.574 2.457-2.763.469-5.431-2.599-5.462-5.65-.023-2.104.563-3.795 3.06-3.889 2.636-.094 4.921 2.629 4.976 7.082zM59.497 37.9c-.023 4.484-2.16 7.113-4.852 7.129-2.48.016-3.169-1.596-3.2-3.709-.039-3.138 2.684-6.331 5.54-5.885 1.182.189 2.105 2.043 2.512 2.465zM61.774 36.727c2.315-2.441 2.183-3.31-.415-4.57-.642-.321-1.291-.649-1.878-1.064-2.527-1.761-3.302-1.471-4.272 1.815-1.644-1.229-2.418-2.974-.79-4.139 1.071-.767 3.247-.478 4.749-.047 1.573.454 3.17 1.417 4.319 2.59 1.096 1.111 2.316 2.825 2.246 4.202-.101 1.886-1.909 2.113-3.959 1.213zM45.702 32.705c-2.019-3.185-2.559-3.341-5.321-1.432-.422.29-.884.54-1.346.767-2.942 1.44-3.122 2.223-1.346 5.399-1.135-.485-3.099-.83-3.208-1.487-.219-1.291.172-3.239 1.08-4.053a19.33 19.33 0 0 1 6.197-3.701c1.15-.415 3.075.086 4.069.892.563.453-.047 2.363-.125 3.615zM66.759 45.272c1.009-.744 2.073-2.144 2.997-2.05.993.094 2.527 1.495 2.652 2.473.36 2.809.392 5.735-.008 8.537-.141 1.01-1.769 2.207-2.935 2.52-.642.18-1.729-1.307-2.395-2.301 3.475.063 3.866-.375 3.553-3.795-.055-.595.102-1.213.164-1.823.306-2.762-.61-3.513-3.341-2.731-.225-.275-.453-.557-.687-.83zM38.15 63.434c-2.183 2.073-2.082 3.075.438 4.351.642.329 1.299.634 1.886 1.049 2.543 1.769 3.357 1.486 5.055-1.683.165 1.236.892 3.13.383 3.568-.986.837-2.911 1.479-4.022 1.072-2.339-.861-4.593-2.23-6.495-3.851-.853-.72-1.283-2.684-.947-3.803.235-.798 2.058-1.127 3.177-1.667.173.322.353.642.525.964zM33.229 54.576c-.908.806-1.964 2.323-2.614 2.167-1.158-.273-2.817-1.455-2.965-2.449-.407-2.777-.376-5.681-.039-8.482.125-1.001 1.549-2.426 2.543-2.574.908-.141 2.035 1.189 3.153 1.925-1.769.688-3.686.978-3.771 1.557-.344 2.175-.266 4.468.078 6.652.077.476 1.908.672 3.615 1.204zM62.228 63.081c1.386-.798 3.193-.657 3.42 1.229.164 1.347-.939 3.17-2.011 4.257-1.229 1.236-2.95 2.184-4.625 2.716-1.4.446-3.255.54-4.499-.055-.634-.306-.376-2.48-.595-4.516 1.808 1.573 3.091 3.256 3.623 3.044 2.05-.821 3.959-2.12 5.665-3.544.314-.259-.587-1.957-.978-3.131zM31.163 67.745c-.83 3.873 2.309 4.163 7.238 2.59.618 1.597 1.041 3.334 1.933 4.781 1.033 1.667 2.52 2.7 4.202.047.227.274.454.556.673.838-.61.884-1.041 2.245-1.87 2.559-2.309.892-3.858-1.15-5.524-6.91-5.446 1.378-7.981 1.096-8.553-1.236-.227-.907.54-2.065.861-3.114.343.148.695.297 1.04.445zM24.824 58.691c-.344-.047-1.737.188-2.386-.398-1.839-1.651-.595-4.633 3.317-8.225-2.003-2.48-5.798-4.483-3.208-8.537.36-.571 1.972-.352 3.036-.133-3.248 2.504-3.021 3.826 1.448 8.521-1.08 1.354-2.567 2.559-3.091 4.101-.391 1.142.462 2.708.884 4.671zM55.498 75.656c2.989 2.065 4.155 1.064 5.854-4.688 2.449-.164 4.75-.188 6.987-.587.423-.07.579-1.65 1.119-3.364.587 1.213 1.534 2.23 1.425 3.106-.337 2.582-3.217 3.005-8.663 1.439-1.541 5.721-3.083 7.817-5.454 7.012-.837-.282-1.33-1.597-1.972-2.441.235-.155.47-.313.704-.477zM68.973 32.235c.337-3.287-.993-4.405-7.441-2.676-2.097-6.502-2.997-7.285-5.938-5.172-.251-.141-.493-.282-.744-.422.579-.876.979-2.222 1.784-2.543 2.449-.979 4.21 1.314 5.532 6.972 2.981-.555 6.315-2.786 8.568 1.08.399.681-.43 2.082-.688 3.153-.36-.133-.713-.259-1.073-.392zM44.45 24.489c-2.888-2.23-3.772-1.479-5.932 5.07-1.706-.282-3.49-.978-5.094-.681-1.119.204-2.003 1.753-3.428 3.122-.148-.399-.986-1.463-.813-2.339.454-2.426 3.412-2.825 8.615-1.299 1.182-2.809.673-7.113 5.392-6.988.728.023 1.408 1.549 2.112 2.387-.281.242-.571.485-.852.728zM74.458 49.959c3.897 4.257 4.914 6.776 3.107 8.365-.658.571-2.027.328-3.107.063 3.287-2.215 2.997-3.827-1.486-8.264 1.057-1.354 2.293-2.629 3.146-4.116 1.08-1.878.54-3.365-1.878-3.905.07-.305.148-.618.219-.923 1.064.118 2.449-.141 3.115.431 1.815 1.557.758 4.178-3.116 8.349z"></path></svg></g></svg>