<svg xmlns="http://www.w3.org/2000/svg" fill="#ce6857" width="40" height="48" viewBox="4.9639997482299805 3 20.072002410888672 24"><path d="M4.964 23.326C4.964 25.352 6.84 27 9.148 27h14.888a1 1 0 0 0 .783-1.622c-1.126-1.419-1.126-2.685 0-4.104.043-.054.073-.115.103-.176.011-.023.028-.041.038-.065a.992.992 0 0 0 .068-.337c0-.014.008-.026.008-.04V4a1 1 0 0 0-1-1H8.5a3.54 3.54 0 0 0-3.536 3.536v16.79zM22.296 25H9.148c-1.184 0-2.184-.767-2.184-1.674s1-1.674 2.184-1.674h13.148a4.461 4.461 0 0 0 0 3.348zM8.5 5h14.536v14.652H9.148c-.803 0-1.546.21-2.184.555V6.537C6.964 5.688 7.654 5 8.5 5z"></path><path d="M11.958 11.138H14v6.167a1 1 0 1 0 2 0v-6.167h2.042a1 1 0 1 0 0-2H16V7.222a1 1 0 1 0-2 0v1.916h-2.042a1 1 0 1 0 0 2z"></path></svg>